<?xml version="1.0" standalone="no"?>
<!DOCTYPE svg PUBLIC "-//W3C//DTD SVG 20010904//EN"
 "http://www.w3.org/TR/2001/REC-SVG-20010904/DTD/svg10.dtd">
<svg version="1.0" xmlns="http://www.w3.org/2000/svg"
 width="654.000000pt" height="382.000000pt" viewBox="0 0 654.000000 382.000000"
 preserveAspectRatio="xMidYMid meet">

<g transform="translate(0.000000,382.000000) scale(0.100000,-0.100000)"
fill="#000000" stroke="none">
<path d="M1365 2991 c-40 -24 -61 -49 -82 -96 -16 -37 -17 -107 -14 -989 3
-1023 1 -987 54 -1044 49 -52 45 -52 508 -52 l433 0 39 27 c79 55 77 42 80
586 l2 482 170 3 c187 4 416 -11 540 -35 44 -8 84 -17 88 -20 4 -3 -12 -18
-37 -34 -47 -31 -79 -76 -88 -122 -4 -19 -1 -27 8 -27 8 0 14 4 14 8 0 23 134
71 243 87 l47 7 0 -200 c0 -110 3 -207 6 -216 5 -14 -7 -16 -95 -16 l-101 0 0
-44 c0 -83 -102 -76 1121 -76 733 0 1097 3 1110 10 15 8 19 22 19 60 l0 50
-97 0 -98 0 0 611 0 611 -24 19 c-22 18 -52 19 -908 19 l-884 0 -24 -25 -25
-24 0 -280 0 -280 -124 84 c-128 85 -133 87 -150 41 -5 -15 7 -33 56 -79 l63
-59 -45 6 c-184 24 -262 28 -450 22 -113 -3 -236 -9 -273 -12 l-69 -7 7 144
c8 186 7 328 -2 569 -9 219 -14 237 -80 283 l-39 27 -435 0 c-405 0 -436 -1
-464 -19z m205 -71 c0 -11 9 -29 20 -40 19 -19 33 -20 238 -20 196 0 221 2
234 18 9 9 18 26 20 37 3 17 12 20 73 23 84 4 128 -15 144 -61 7 -19 11 -185
11 -462 0 -424 0 -433 -20 -438 -13 -3 -20 -14 -20 -31 0 -15 8 -31 20 -38 20
-13 20 -24 20 -476 0 -512 1 -505 -64 -536 -30 -14 -83 -16 -420 -16 -434 0
-445 1 -471 64 -13 30 -15 172 -15 969 0 610 4 944 10 963 16 47 54 63 143 64
70 0 77 -2 77 -20z m390 -5 c0 -8 -7 -15 -15 -15 -16 0 -20 12 -8 23 11 12 23
8 23 -8z m-75 -5 c-3 -5 -30 -10 -60 -10 -30 0 -57 5 -60 10 -4 6 18 10 60 10
42 0 64 -4 60 -10z m2113 -341 c-2 -6 -8 -10 -13 -10 -5 0 -11 4 -13 10 -2 6
4 11 13 11 9 0 15 -5 13 -11z m1180 -601 l2 -568 -870 0 -870 0 0 186 c0 185
0 187 25 210 45 42 46 111 0 132 l-25 12 0 300 0 300 868 -2 867 -3 3 -567z
m-590 -640 c-7 -19 -549 -19 -555 0 -4 9 56 12 277 12 221 0 281 -3 278 -12z
m606 -37 c8 -13 -20 -45 -32 -37 -20 12 -14 46 7 46 11 0 22 -4 25 -9z m76
-10 c0 -27 -19 -36 -37 -18 -18 18 -9 37 18 37 12 0 19 -7 19 -19z m76 8 c3
-6 0 -17 -7 -25 -18 -17 -44 -2 -36 20 7 18 33 21 43 5z m-1936 -9 c0 -6 -32
-10 -75 -10 -43 0 -75 4 -75 10 0 6 32 10 75 10 43 0 75 -4 75 -10z"/>
<path d="M1680 2221 c-123 -39 -289 -164 -290 -216 0 -24 18 -45 38 -45 8 0
42 26 77 58 35 32 88 70 117 84 174 84 402 53 524 -73 21 -22 47 -44 57 -50
25 -14 57 6 57 38 0 41 -98 123 -215 178 -56 27 -70 29 -200 31 -77 2 -151 0
-165 -5z m330 -33 c76 -29 127 -60 193 -118 48 -43 58 -66 32 -76 -10 -4 -33
10 -63 38 -198 186 -505 182 -689 -9 -45 -47 -73 -55 -73 -23 0 21 104 130
123 130 6 0 18 7 27 15 9 9 55 29 101 46 77 27 92 30 184 26 73 -4 117 -11
165 -29z"/>
<path d="M1714 2081 c-82 -21 -214 -125 -214 -169 0 -21 19 -42 38 -42 8 0 41
24 75 54 138 123 326 115 463 -21 36 -36 84 -25 84 19 0 26 -77 96 -145 131
-54 27 -70 31 -165 33 -58 2 -119 0 -136 -5z m277 -38 c67 -31 149 -101 149
-127 0 -31 -24 -27 -63 12 -102 97 -240 127 -365 78 -43 -17 -84 -42 -115 -72
-44 -42 -82 -55 -82 -27 0 20 80 99 126 124 111 59 238 64 350 12z"/>
<path d="M1723 1947 c-77 -34 -115 -71 -111 -110 4 -42 39 -49 77 -15 52 48
84 62 141 62 56 1 95 -16 149 -64 27 -23 51 -26 69 -8 21 21 13 49 -23 81 -85
75 -204 96 -302 54z m193 -12 c62 -18 130 -74 121 -98 -9 -25 -29 -21 -64 13
-65 64 -197 65 -277 3 -46 -35 -76 -39 -76 -8 0 19 80 76 128 91 53 17 111 16
168 -1z"/>
<path d="M1805 1808 c-36 -10 -55 -24 -78 -58 -25 -36 -21 -72 13 -118 29 -41
32 -42 88 -42 51 0 62 4 86 28 34 37 43 89 22 130 -24 47 -83 74 -131 60z m71
-24 c28 -7 57 -69 49 -105 -9 -42 -52 -79 -91 -79 -40 0 -90 39 -97 77 -6 34
14 87 40 102 20 11 66 14 99 5z"/>
<path d="M4160 2221 c-135 -46 -289 -161 -290 -216 0 -25 18 -45 40 -45 8 0
42 26 75 58 99 94 191 131 325 131 126 0 229 -39 313 -118 61 -58 72 -64 97
-51 23 12 25 35 7 67 -18 33 -124 111 -197 146 -62 29 -72 31 -205 33 -77 2
-151 -1 -165 -5z m334 -34 c38 -15 76 -33 86 -42 9 -8 21 -15 26 -15 5 0 36
-24 68 -54 41 -37 57 -59 53 -70 -10 -26 -34 -19 -74 23 -183 188 -509 185
-690 -6 -42 -44 -71 -53 -81 -24 -5 14 113 131 131 131 6 0 19 7 29 16 9 9 55
30 100 46 75 26 92 28 183 24 75 -3 117 -10 169 -29z"/>
<path d="M4194 2081 c-53 -14 -133 -63 -174 -108 -41 -44 -49 -70 -28 -91 19
-19 36 -14 71 18 63 57 93 77 141 93 110 37 230 13 321 -64 67 -58 98 -62 103
-13 2 25 -5 38 -42 72 -24 22 -68 53 -98 68 -46 24 -67 28 -158 30 -58 2 -119
0 -136 -5z m276 -38 c97 -44 179 -136 135 -150 -5 -1 -30 16 -55 38 -74 68
-140 94 -240 94 -71 0 -94 -4 -142 -27 -32 -15 -76 -45 -98 -67 -44 -43 -67
-51 -76 -26 -4 9 11 32 40 60 120 116 288 146 436 78z"/>
<path d="M4203 1947 c-95 -41 -144 -102 -111 -135 16 -16 55 -15 65 1 16 27
89 67 134 73 53 7 99 -9 151 -55 41 -35 73 -40 88 -12 21 40 -24 90 -117 129
-68 29 -142 28 -210 -1z m190 -11 c52 -16 127 -70 127 -92 0 -29 -30 -25 -75
10 -29 22 -63 37 -91 42 -71 10 -127 -3 -179 -42 -73 -56 -108 -23 -37 36 66
55 165 73 255 46z"/>
<path d="M4252 1796 c-51 -28 -75 -93 -51 -139 28 -53 50 -67 109 -67 59 0 81
14 109 67 46 90 -75 191 -167 139z m124 -33 c33 -36 39 -65 19 -106 -16 -34
-50 -57 -85 -57 -56 0 -109 65 -95 117 18 72 112 99 161 46z"/>
</g>
</svg>
