<svg width="35" height="35" viewBox="0 0 35 35" fill="none" xmlns="http://www.w3.org/2000/svg">
<path d="M29.1668 17.4999C29.1668 23.9433 23.9435 29.1666 17.5002 29.1666C11.0568 29.1666 5.8335 23.9433 5.8335 17.4999C5.8335 11.0566 11.0568 5.83328 17.5002 5.83328C23.9435 5.83328 29.1668 11.0566 29.1668 17.4999ZM8.731 17.4999C8.731 22.343 12.6571 26.2691 17.5002 26.2691C22.3432 26.2691 26.2693 22.343 26.2693 17.4999C26.2693 12.6569 22.3432 8.73079 17.5002 8.73079C12.6571 8.73079 8.731 12.6569 8.731 17.4999Z" fill="#8D6AEE"/>
<path d="M18.377 33.5761C18.4191 34.3481 19.0805 34.9456 19.8467 34.842C22.2383 34.5183 24.5424 33.7027 26.6115 32.4409C29.0799 30.9356 31.1369 28.8422 32.5986 26.3477C34.0604 23.8532 34.8813 21.0355 34.9881 18.1462C35.0776 15.7244 34.6629 13.3156 33.7763 11.071C33.4922 10.3519 32.6478 10.0669 31.9536 10.4075C31.2595 10.7482 30.9797 11.5852 31.2528 12.3086C31.9419 14.1342 32.2624 16.0835 32.19 18.0428C32.1003 20.4698 31.4107 22.8367 30.1828 24.9321C28.955 27.0274 27.2271 28.7859 25.1536 30.0504C23.4796 31.0712 21.6225 31.7444 19.6929 32.0355C18.9284 32.1509 18.3349 32.804 18.377 33.5761Z" fill="#8D6AEE"/>
<path d="M15.9551 33.5257C15.8809 34.2953 15.1953 34.8648 14.4341 34.7293C12.058 34.3065 9.78981 33.3958 7.77499 32.049C5.37133 30.4423 3.40318 28.2652 2.04646 25.7121C0.689732 23.159 -0.0133018 20.3095 0.000190735 17.4183C0.0115013 14.9949 0.525963 12.6054 1.50517 10.3996C1.81889 9.6929 2.67451 9.44335 3.35387 9.81254C4.03324 10.1817 4.27794 11.0297 3.97502 11.7411C3.21054 13.5365 2.80931 15.4707 2.80016 17.4314C2.78883 19.86 3.37938 22.2535 4.51903 24.3981C5.65868 26.5427 7.31192 28.3716 9.331 29.7212C10.9611 30.8108 12.7886 31.5606 14.7044 31.9317C15.4635 32.0788 16.0293 32.7561 15.9551 33.5257Z" fill="#8D6AEE"/>
<path d="M30.1649 7.55966C30.7731 7.08228 30.8832 6.19783 30.3587 5.6297C28.9126 4.06321 27.1896 2.77114 25.2725 1.82078C22.9364 0.662734 20.3711 0.0413325 17.764 0.00199209C15.157 -0.0373484 12.5741 0.506367 10.2041 1.59339C8.25918 2.48548 6.49801 3.72497 5.00532 5.24712C4.46396 5.79917 4.54725 6.68653 5.1408 7.18205C5.73435 7.67757 6.6128 7.59259 7.16252 7.04885C8.38199 5.84264 9.80585 4.85655 11.3715 4.13845C13.3622 3.22535 15.5319 2.76863 17.7218 2.80167C19.9117 2.83472 22.0666 3.3567 24.0289 4.32945C25.5721 5.09446 26.9656 6.12306 28.1481 7.36552C28.6812 7.9256 29.5567 8.03704 30.1649 7.55966Z" fill="#8D6AEE"/>
</svg>
