<svg width="19" height="25" viewBox="0 0 19 25" fill="none" xmlns="http://www.w3.org/2000/svg">
<g clip-path="url(#clip0_214_26)">
<path d="M0 2.34375C0 1.0498 1.0638 0 2.375 0V2.34375V21.5527L8.81224 17.0166C9.22292 16.7236 9.78203 16.7236 10.1927 17.0166L16.625 21.5527V2.34375H2.375V0H16.625C17.9362 0 19 1.0498 19 2.34375V23.8281C19 24.2676 18.7526 24.668 18.3568 24.8682C17.9609 25.0684 17.4859 25.0342 17.1247 24.7803L9.5 19.4092L1.87526 24.7803C1.51406 25.0342 1.03906 25.0684 0.643229 24.8682C0.247396 24.668 0 24.2676 0 23.8281V2.34375Z" fill="#8D6AEE"/>
</g>
<defs>
<clipPath id="clip0_214_26">
<rect width="19" height="25" fill="white"/>
</clipPath>
</defs>
</svg>
