<svg width="31" height="31" viewBox="0 0 31 31" fill="none" xmlns="http://www.w3.org/2000/svg">
<path d="M9.6875 22.2822C11.292 22.2822 12.5938 23.584 12.5938 25.1886V26.1574L16.9834 22.8635C17.4859 22.4881 18.0975 22.2822 18.7271 22.2822H27.125C27.6578 22.2822 28.0938 21.8463 28.0938 21.3134V3.87517C28.0938 3.34233 27.6578 2.90638 27.125 2.90638H3.875C3.34219 2.90638 2.90625 3.34233 2.90625 3.87517V21.3134C2.90625 21.8463 3.34219 22.2822 3.875 22.2822H9.6875ZM12.5938 29.7903L12.5816 29.8025L12.2729 30.0325L11.2375 30.8076C10.9469 31.0256 10.5533 31.0619 10.2203 30.8984C9.88731 30.7349 9.6875 30.4019 9.6875 30.0325V28.7428V28.3553V28.3372V28.095V25.1886H6.78125H3.875C1.7377 25.1886 0 23.4508 0 21.3134V3.87517C0 1.73777 1.7377 0 3.875 0H27.125C29.2623 0 31 1.73777 31 3.87517V21.3134C31 23.4508 29.2623 25.1886 27.125 25.1886H18.7271L12.5938 29.7903Z" fill="#8D6AEE"/>
</svg>
