<svg width="30" height="28" viewBox="0 0 30 28" fill="none" xmlns="http://www.w3.org/2000/svg">
<path d="M15.0005 0C15.5234 0 16.0009 0.284354 16.2283 0.738226L20.1278 8.46499L28.8362 9.70083C29.3477 9.77192 29.7741 10.1164 29.9332 10.5922C30.0924 11.0679 29.9617 11.5819 29.5979 11.9319L23.2826 17.958L24.7719 26.4668C24.8571 26.9589 24.6468 27.4565 24.2205 27.7518C23.7942 28.0471 23.2371 28.0799 22.7823 27.8448L14.9948 23.8419L7.21864 27.8393C6.75821 28.0744 6.20114 28.0416 5.7805 27.7463C5.35986 27.4511 5.14386 26.9534 5.22912 26.4613L6.71842 17.9526L0.403124 11.9319C0.033642 11.5819 -0.0914134 11.0624 0.067748 10.5922C0.226909 10.1219 0.653234 9.77739 1.16482 9.70083L9.87322 8.46499L13.7727 0.738226C14.0057 0.284354 14.4775 0 15.0005 0ZM15.0005 4.31999L12.0162 10.2367C11.8173 10.625 11.4364 10.8984 10.9874 10.964L4.26279 11.9155L9.14563 16.5691C9.45827 16.8698 9.60606 17.2964 9.53216 17.7174L8.37824 24.263L14.3582 21.1898C14.7618 20.982 15.2449 20.982 15.6428 21.1898L21.6227 24.263L20.4745 17.7229C20.4006 17.3018 20.5427 16.8753 20.861 16.5745L25.7439 11.921L19.0193 10.964C18.5759 10.8984 18.1894 10.6304 17.9905 10.2367L15.0005 4.31999Z" fill="#8D6AEE"/>
</svg>
